{"title":"Chelsea S01E06 720p WEBRip x264","uid":14680057,"size":537547406,"categoryP":"video","categoryS":"hd___tv_shows","magnet":"?xt=urn:btih:d0bf37280df112c618a5f5f7975cf3388a7a8240&amp;dn=Chelsea+S01E06+720p+WEBRip+x264&amp;tr=udp%3A%2F%2Ftracker.leechers-paradise.org%3A6969&amp;tr=udp%3A%2F%2Fzer0day.ch%3A1337&amp;tr=udp%3A%2F%2Fopen.demonii.com%3A1337&amp;tr=udp%3A%2F%2Ftracker.coppersurfer.tk%3A6969&amp;tr=udp%3A%2F%2Fexodus.desync.com%3A6969","seeders":0,"leechers":1,"uploader":"TheRival","files":1,"time":1463972945,"description":"Chelsea S01E06 Christina Aguilera &amp; Chelsea on Ice 720p WEBRip x264\r\n\r\nScreens: \nhttp://extraimago.com/image/aUkq\r\n\r\nVideo\r\nID                                       : 1\r\nFormat                                   : AVC\r\nFormat/Info                              : Advanced Video Codec\r\nFormat profile                           :   \r\nFormat settings, CABAC                   : Yes\r\nFormat settings, ReFrames                : 1 frame\r\nFormat settings, GOP                     : M=3, N=24\r\nMuxing mode                              : Container   \r\nCodec ID                                 : avc1\r\nCodec ID/Info                            : Advanced Video Coding\r\nDuration                                 : 34mn 24s\r\nBit rate mode                            : Variable\r\nBit rate                                 : 1 949 Kbps\r\nMaximum bit rate                         : 3 000 Kbps\r\nWidth                                    : 1 280 pixels\r\nHeight                                   : 720 pixels\r\nDisplay aspect ratio                     : 16:9\r\nFrame rate mode                          : Constant\r\nFrame rate                               : 24.000 fps\r\nColor space                              : YUV\r\nChroma subsampling                       : 4:2:0\r\nBit depth                                : 8 bits\r\nScan type                                : Progressive\r\nBits/(Pixel*Frame)                       : 0.088\r\nStream size                              : 480 MiB (94%)\r\nLanguage                                 : English\r\n\r\nAudio\r\nID                                       : 2\r\nFormat                                   : AAC\r\nFormat/Info                              : Advanced Audio Codec\r\nFormat profile                           : LC\r\nCodec ID                                 : 40\r\nDuration                                 : 34mn 25s\r\nBit rate mode                            : Constant\r\nBit rate                                 : 128 Kbps\r\nChannel(s)                               : 2 channels\r\nChannel positions                        : Front: L R\r\nSampling rate                            : 48.0 KHz\r\nFrame rate                               : 46.875 fps (1024 spf)\r\nCompression mode                         : Lossy\r\nStream size                              : 31.5 MiB (6%)\r\nTitle                                    : Stereo\r\nLanguage                                 : English\r\nDefault                                  : Yes\r\nAlternate group                          : 1","torrent":{"xt":"urn:btih:d0bf37280df112c618a5f5f7975cf3388a7a8240","amp;dn":"Chelsea+S01E06+720p+WEBRip+x264","amp;tr":["udp%3A%2F%2Ftracker.leechers-paradise.org%3A6969","udp%3A%2F%2Fzer0day.ch%3A1337","udp%3A%2F%2Fopen.demonii.com%3A1337","udp%3A%2F%2Ftracker.coppersurfer.tk%3A6969","udp%3A%2F%2Fexodus.desync.com%3A6969"],"infoHash":"d0bf37280df112c618a5f5f7975cf3388a7a8240","infoHashBuffer":{"type":"Buffer","data":[208,191,55,40,13,241,18,198,24,165,245,247,151,92,243,56,138,122,130,64]},"announce":[],"urlList":[]}}